<svg width="238" height="21" viewBox="0 0 238 21" fill="none" xmlns="http://www.w3.org/2000/svg">
<path fill-rule="evenodd" clip-rule="evenodd" d="M40.4792 10.5049C40.4808 12.5729 39.8755 14.5949 38.7398 16.3151C37.6041 18.0354 35.9891 19.3767 34.099 20.1692C32.209 20.9617 30.1287 21.1699 28.1215 20.7675C26.1143 20.365 24.2703 19.3701 22.8228 17.9084C21.3752 16.4467 20.3892 14.5839 19.9894 12.5558C19.8749 11.9751 19.8099 11.3883 19.7939 10.8017C19.7192 13.3472 18.686 15.7727 16.8989 17.5787C15.0424 19.4548 12.5246 20.5087 9.89914 20.5087H0V0.500863H9.89914C12.5246 0.500863 15.0424 1.55484 16.8989 3.43094C18.6879 5.23891 19.7215 7.66765 19.7942 10.2162C19.8298 8.95092 20.0926 7.69607 20.5766 6.51452C21.3594 4.60379 22.6853 2.97059 24.3866 1.8215C26.0879 0.672423 28.0883 0.059082 30.1346 0.059082C32.8754 0.0634846 35.5028 1.16521 37.4416 3.12298C39.3804 5.08075 40.4727 7.73509 40.4792 10.5049ZM66.4232 0.500307L63.6102 10.9627L60.8054 0.500307H55.6414L52.7954 10.9961L49.9824 0.500307H42.0136L49.042 20.5082H55.6414L58.2317 12.3967L60.8054 20.5082H67.4049L74.392 0.500307H66.4232ZM95.2627 0.500307V20.5082H87.7559V13.347H83.0785V20.5082H75.5717V0.500307H83.0785V7.66149H87.7641V0.500307H95.2627ZM98.0757 0.500307V20.5082H105.574V0.500307H98.0757ZM121.99 14.7809V20.5082H108.387V0.500307H115.894V14.8143L121.99 14.7809ZM131.362 8.1033V6.19423L137.458 6.22756V0.500307H123.863V20.5082H137.458V14.7809H131.362V12.8719H136.055V8.1033H131.362Z" fill="url(#paint0_linear_61506:93)"/>
<path d="M161.199 0.625335L158.526 0.216797C158.444 0.216797 158.361 0.21682 158.361 0.291849L157.223 1.76745C157.165 1.86501 157.138 1.97893 157.149 2.09254C157.149 2.1759 157.066 2.34265 156.984 2.25928L156.093 2.01754C155.928 2.01754 155.771 2.01754 155.689 2.17593L152.042 6.92782C151.96 7.01119 151.878 7.01117 151.721 7.01117L150.343 6.35259C150.283 6.31209 150.213 6.29046 150.141 6.29046C150.069 6.29046 149.999 6.31209 149.939 6.35259L149.205 6.84442C149.145 6.88602 149.075 6.90833 149.003 6.90833C148.93 6.90833 148.86 6.88602 148.801 6.84442L148.479 6.67768C148.426 6.65365 148.368 6.64112 148.309 6.64084C148.251 6.64057 148.193 6.65258 148.14 6.6761C148.086 6.69963 148.038 6.73418 147.998 6.77751C147.959 6.82085 147.929 6.87203 147.91 6.92782L147.67 8.06993C147.639 8.19127 147.646 8.3193 147.688 8.43695C147.731 8.5546 147.808 8.65629 147.91 8.72851L148.561 9.137L150.261 10.2041L151.086 10.696C151.2 10.7617 151.332 10.7891 151.462 10.7742C151.593 10.7592 151.715 10.7026 151.812 10.6126L153.189 9.38709C153.313 9.31147 153.459 9.28199 153.602 9.30374L154.006 9.54548C154.163 9.62885 154.328 9.62887 154.41 9.46214L155.136 8.81186C155.186 8.7571 155.252 8.71964 155.325 8.7047C155.397 8.68975 155.473 8.69808 155.54 8.72851L156.596 9.22039C156.761 9.30376 156.918 9.22036 157.083 9.137L157.569 8.48677L161.216 3.73488C161.372 3.48478 161.298 3.15965 160.968 3.15965L160.143 3.00125C159.978 3.00125 159.904 2.75115 159.978 2.58442L161.282 1.03382C161.447 0.867089 161.356 0.625335 161.199 0.625335Z" fill="white"/>
<path d="M149.073 10.2039C148.99 10.1206 148.908 10.2039 148.908 10.2873L149.312 11.346V11.5961L148.99 12.9883C148.985 13.0323 148.99 13.077 149.004 13.1188C149.018 13.1607 149.042 13.1988 149.073 13.2301L150.038 13.9721C150.085 14.0086 150.143 14.0284 150.203 14.0284C150.262 14.0284 150.32 14.0086 150.368 13.9721L151.416 13.0717C151.448 13.0402 151.487 13.0164 151.53 13.002C151.573 12.9876 151.618 12.9829 151.663 12.9883L152.793 12.8216C152.876 12.8216 152.876 12.7383 152.793 12.6549L149.073 10.2039Z" fill="white"/>
<path d="M148.718 13.722C148.704 13.7031 148.686 13.6877 148.665 13.677C148.645 13.6664 148.622 13.6609 148.598 13.6609C148.575 13.6609 148.552 13.6664 148.531 13.677C148.511 13.6877 148.493 13.7031 148.479 13.722L147.654 14.1305C147.632 14.1305 147.611 14.1393 147.596 14.1549C147.58 14.1706 147.571 14.1918 147.571 14.2139L145.79 18.6323H145.872L146.276 18.4739V18.5572L144.981 20.6831C144.981 20.7665 144.981 20.7665 145.055 20.7665L149.592 16.098C149.675 16.098 149.675 16.0146 149.675 15.9312L149.757 14.7057C149.757 14.6224 149.757 14.539 149.675 14.539L148.718 13.722Z" fill="white"/>
<path d="M184.107 14.7809V20.5081H165.827C165.827 20.5081 174.522 10.8543 175.668 8.58672C176.576 6.80268 175.611 5.72727 174.728 5.72727C173.845 5.72727 172.855 6.23579 172.855 8.58672L165.885 8.11153C165.885 3.6431 168.986 0.00830078 174.728 0.00830078C180.263 0.00830078 183.637 2.95948 183.637 7.16114C183.637 9.77884 181.41 12.7634 178.952 14.7892L184.107 14.7809Z" fill="white"/>
<path d="M204.731 10.5044C204.731 16.29 200.944 21.0002 195.351 21.0002C189.758 21.0002 185.98 16.29 185.98 10.5044C185.98 4.71871 189.758 0.0168457 195.351 0.0168457C200.944 0.0168457 204.731 4.6687 204.731 10.5044Z" fill="white"/>
<path d="M224.884 14.7809V20.5081H206.603C206.603 20.5081 215.298 10.8543 216.445 8.58672C217.352 6.80268 216.387 5.72727 215.504 5.72727C214.622 5.72727 213.632 6.23579 213.632 8.58672L206.661 8.11153C206.661 3.6431 209.763 0.00830078 215.504 0.00830078C221.04 0.00830078 224.413 2.95948 224.413 7.16114C224.413 9.77884 222.186 12.7634 219.728 14.7892L224.884 14.7809Z" fill="white"/>
<path d="M238 0V20.5081H230.501V7.16948L227.202 7.58631V1.83402L238 0Z" fill="white"/>
<defs>
<linearGradient id="paint0_linear_61506:93" x1="-3.90498e-06" y1="0.555036" x2="45.0945" y2="76.1006" gradientUnits="userSpaceOnUse">
<stop stop-color="#413DFF"/>
<stop offset="1" stop-color="#B923FF"/>
</linearGradient>
</defs>
</svg>
