<svg width="48" height="48" viewBox="0 0 48 48" fill="none" xmlns="http://www.w3.org/2000/svg">
<rect width="48" height="48" rx="7" fill="#323238"/>
<path d="M17.3721 36H12.3964V19.9764H17.3721V36ZM14.8816 17.7907C13.2905 17.7907 12 16.4728 12 14.8817C12 14.1174 12.3036 13.3844 12.844 12.844C13.3844 12.3036 14.1174 12 14.8816 12C15.6459 12 16.3788 12.3036 16.9192 12.844C17.4596 13.3844 17.7632 14.1174 17.7632 14.8817C17.7632 16.4728 16.4721 17.7907 14.8816 17.7907ZM35.9946 36H31.0296V28.1998C31.0296 26.3409 30.9921 23.9569 28.4427 23.9569C25.8557 23.9569 25.4593 25.9766 25.4593 28.0659V36H20.4889V19.9764H25.2611V22.1622H25.3307C25.995 20.9032 27.6177 19.5746 30.0386 19.5746C35.0743 19.5746 36 22.8908 36 27.198V36H35.9946Z" fill="white"/>
</svg>
